<mxfile host="Electron" modified="2023-12-14T03:03:28.771Z" agent="Mozilla/5.0 (Macintosh; Intel Mac OS X 10_15_7) AppleWebKit/537.36 (KHTML, like Gecko) draw.io/22.1.2 Chrome/114.0.5735.289 Electron/25.9.4 Safari/537.36" etag="v0nUMAwEM3hEvronCQQ0" version="22.1.2" type="device">
  <diagram name="第 1 页" id="ldgURAtEuup_nus-LMuB">
    <mxGraphModel dx="804" dy="637" grid="0" gridSize="10" guides="1" tooltips="1" connect="1" arrows="1" fold="1" page="0" pageScale="1" pageWidth="827" pageHeight="1169" math="0" shadow="0">
      <root>
        <mxCell id="0" />
        <mxCell id="1" parent="0" />
        <mxCell id="PMRteUi3-rAKlSlr2nNy-8" style="edgeStyle=orthogonalEdgeStyle;rounded=0;orthogonalLoop=1;jettySize=auto;html=1;endArrow=none;endFill=0;" parent="1" source="PMRteUi3-rAKlSlr2nNy-3" target="PMRteUi3-rAKlSlr2nNy-6" edge="1">
          <mxGeometry relative="1" as="geometry" />
        </mxCell>
        <mxCell id="PMRteUi3-rAKlSlr2nNy-3" value="IP: 192.168.1.28" style="rounded=0;whiteSpace=wrap;html=1;fillColor=#f8cecc;strokeColor=#b85450;" parent="1" vertex="1">
          <mxGeometry x="80" y="240" width="190" height="80" as="geometry" />
        </mxCell>
        <mxCell id="PMRteUi3-rAKlSlr2nNy-6" value="&lt;br&gt;IP: 192.168.1.5" style="rounded=0;whiteSpace=wrap;html=1;fillColor=#d5e8d4;strokeColor=#82b366;" parent="1" vertex="1">
          <mxGeometry x="350" y="250" width="190" height="60" as="geometry" />
        </mxCell>
        <mxCell id="PMRteUi3-rAKlSlr2nNy-7" value="IP:10.2.0.8" style="rounded=0;whiteSpace=wrap;html=1;fillColor=#fff2cc;strokeColor=#d6b656;" parent="1" vertex="1">
          <mxGeometry x="630" y="290" width="190" height="80" as="geometry" />
        </mxCell>
        <mxCell id="PMRteUi3-rAKlSlr2nNy-11" style="edgeStyle=orthogonalEdgeStyle;rounded=0;orthogonalLoop=1;jettySize=auto;html=1;endArrow=none;endFill=0;" parent="1" source="PMRteUi3-rAKlSlr2nNy-10" target="PMRteUi3-rAKlSlr2nNy-7" edge="1">
          <mxGeometry relative="1" as="geometry" />
        </mxCell>
        <mxCell id="PMRteUi3-rAKlSlr2nNy-10" value="IP:10.2.0.3" style="rounded=0;whiteSpace=wrap;html=1;fillColor=#d5e8d4;strokeColor=#82b366;" parent="1" vertex="1">
          <mxGeometry x="350" y="310" width="190" height="40" as="geometry" />
        </mxCell>
        <mxCell id="PMRteUi3-rAKlSlr2nNy-12" value="有两个网卡的网关机器b" style="text;html=1;align=center;verticalAlign=middle;resizable=0;points=[];autosize=1;strokeColor=none;fillColor=none;fontStyle=1" parent="1" vertex="1">
          <mxGeometry x="394" y="247" width="150" height="30" as="geometry" />
        </mxCell>
        <mxCell id="PMRteUi3-rAKlSlr2nNy-13" value="机器a" style="text;html=1;align=center;verticalAlign=middle;resizable=0;points=[];autosize=1;strokeColor=none;fillColor=none;fontStyle=1" parent="1" vertex="1">
          <mxGeometry x="220" y="235" width="50" height="30" as="geometry" />
        </mxCell>
        <mxCell id="PMRteUi3-rAKlSlr2nNy-14" value="机器c" style="text;html=1;align=center;verticalAlign=middle;resizable=0;points=[];autosize=1;strokeColor=none;fillColor=none;fontStyle=1" parent="1" vertex="1">
          <mxGeometry x="770" y="285" width="50" height="30" as="geometry" />
        </mxCell>
        <mxCell id="uSj83pJIT2XByI9e7HhB-1" style="edgeStyle=orthogonalEdgeStyle;rounded=0;orthogonalLoop=1;jettySize=auto;html=1;endArrow=none;endFill=0;" edge="1" parent="1" source="uSj83pJIT2XByI9e7HhB-2" target="uSj83pJIT2XByI9e7HhB-3">
          <mxGeometry relative="1" as="geometry">
            <Array as="points">
              <mxPoint x="320" y="514" />
              <mxPoint x="320" y="514" />
            </Array>
          </mxGeometry>
        </mxCell>
        <mxCell id="uSj83pJIT2XByI9e7HhB-2" value="IP: 192.168.1.28" style="rounded=0;whiteSpace=wrap;html=1;fillColor=#f8cecc;strokeColor=#b85450;" vertex="1" parent="1">
          <mxGeometry x="87" y="474" width="190" height="80" as="geometry" />
        </mxCell>
        <mxCell id="uSj83pJIT2XByI9e7HhB-3" value="&lt;br&gt;IP: 192.168.1.5" style="rounded=0;whiteSpace=wrap;html=1;fillColor=#d5e8d4;strokeColor=#82b366;" vertex="1" parent="1">
          <mxGeometry x="357" y="484" width="190" height="60" as="geometry" />
        </mxCell>
        <mxCell id="uSj83pJIT2XByI9e7HhB-4" value="IP:10.2.0.8" style="rounded=0;whiteSpace=wrap;html=1;fillColor=#fff2cc;strokeColor=#d6b656;" vertex="1" parent="1">
          <mxGeometry x="637" y="524" width="190" height="80" as="geometry" />
        </mxCell>
        <mxCell id="uSj83pJIT2XByI9e7HhB-5" style="edgeStyle=orthogonalEdgeStyle;rounded=0;orthogonalLoop=1;jettySize=auto;html=1;endArrow=none;endFill=0;" edge="1" parent="1" source="uSj83pJIT2XByI9e7HhB-6" target="uSj83pJIT2XByI9e7HhB-4">
          <mxGeometry relative="1" as="geometry" />
        </mxCell>
        <mxCell id="uSj83pJIT2XByI9e7HhB-6" value="IP:10.2.0.3" style="rounded=0;whiteSpace=wrap;html=1;fillColor=#d5e8d4;strokeColor=#82b366;" vertex="1" parent="1">
          <mxGeometry x="357" y="544" width="190" height="40" as="geometry" />
        </mxCell>
        <mxCell id="uSj83pJIT2XByI9e7HhB-7" value="有两个网卡的网关机器b" style="text;html=1;align=center;verticalAlign=middle;resizable=0;points=[];autosize=1;strokeColor=none;fillColor=none;fontStyle=1" vertex="1" parent="1">
          <mxGeometry x="401" y="481" width="150" height="30" as="geometry" />
        </mxCell>
        <mxCell id="uSj83pJIT2XByI9e7HhB-8" value="机器a" style="text;html=1;align=center;verticalAlign=middle;resizable=0;points=[];autosize=1;strokeColor=none;fillColor=none;fontStyle=1" vertex="1" parent="1">
          <mxGeometry x="227" y="469" width="50" height="30" as="geometry" />
        </mxCell>
        <mxCell id="uSj83pJIT2XByI9e7HhB-9" value="机器c" style="text;html=1;align=center;verticalAlign=middle;resizable=0;points=[];autosize=1;strokeColor=none;fillColor=none;fontStyle=1" vertex="1" parent="1">
          <mxGeometry x="777" y="519" width="50" height="30" as="geometry" />
        </mxCell>
        <mxCell id="uSj83pJIT2XByI9e7HhB-10" value="" style="endArrow=classic;html=1;rounded=0;exitX=1;exitY=0.25;exitDx=0;exitDy=0;entryX=0;entryY=0.25;entryDx=0;entryDy=0;edgeStyle=orthogonalEdgeStyle;curved=1;strokeWidth=2;strokeColor=#af1818;" edge="1" parent="1" source="uSj83pJIT2XByI9e7HhB-2" target="uSj83pJIT2XByI9e7HhB-4">
          <mxGeometry width="50" height="50" relative="1" as="geometry">
            <mxPoint x="425" y="581" as="sourcePoint" />
            <mxPoint x="475" y="531" as="targetPoint" />
          </mxGeometry>
        </mxCell>
        <mxCell id="uSj83pJIT2XByI9e7HhB-11" value="" style="curved=1;endArrow=classic;html=1;rounded=0;exitX=0;exitY=0.75;exitDx=0;exitDy=0;entryX=1;entryY=0.75;entryDx=0;entryDy=0;edgeStyle=orthogonalEdgeStyle;strokeWidth=2;strokeColor=#000099;" edge="1" parent="1" source="uSj83pJIT2XByI9e7HhB-4" target="uSj83pJIT2XByI9e7HhB-2">
          <mxGeometry width="50" height="50" relative="1" as="geometry">
            <mxPoint x="468" y="681" as="sourcePoint" />
            <mxPoint x="518" y="631" as="targetPoint" />
          </mxGeometry>
        </mxCell>
      </root>
    </mxGraphModel>
  </diagram>
</mxfile>
